<svg id="Layer_1" xmlns="http://www.w3.org/2000/svg" viewBox="0 0 24 20"><style>.st0{fill:#FFFFFF;}</style><path id="XMLID_105_" class="st0" d="M21 2.9C19.1 1 16.6 0 13.9 0c-1.1 0-2 .9-2 1.9s.9 1.9 2 1.9c1.7 0 3.2.6 4.4 1.8 2.4 2.4 2.4 6.3 0 8.7-1.2 1.2-2.7 1.8-4.4 1.8-1.7 0-3.2-.6-4.4-1.8-1.8-1.8-2.3-4.4-1.4-6.7L9.3 10c.2.4.5.7.9.8.4.1.8.1 1.2-.1.8-.4 1.1-1.3.8-2.1L10 4.3c0-.5-.2-1-.6-1.4l-.1-.1-.1-.2c-.2-.4-.5-.7-.9-.8-.4-.1-.8-.1-1.2.1L.9 4.8C.1 5.2-.2 6.1.2 6.9c.2.4.5.7.9.8.4.1.8.1 1.2-.1l2-.9c-1.2 3.5-.4 7.6 2.4 10.4C8.6 19 11.2 20 13.9 20s5.3-1 7.2-2.9C25 13.2 25 6.8 21 2.9z"/></svg>